<?xml version="1.0" encoding="utf-8"?>
<!-- Generator: Adobe Illustrator 26.0.0, SVG Export Plug-In . SVG Version: 6.00 Build 0)  -->
<svg version="1.1" id="Layer_1" xmlns="http://www.w3.org/2000/svg" xmlns:xlink="http://www.w3.org/1999/xlink" x="0px" y="0px"
	 viewBox="0 0 1080 1350" enable-background="new 0 0 1080 1350" xml:space="preserve">
<g>
	<path fill="#EBC2DE" d="M664.368,475.725c0,0,99.321,0.038,124.663-66.506c25.342-66.544-26.622-142.366,33.277-208.27
		c59.899-65.904,192.766-13.64,192.766-13.64s-30.603,8.361-66.824,29.636c-48.866,32.519-77.112,116.828-101.88,209.87
		l-119.798,55.667L664.368,475.725z"/>
	<path fill="#5867CC" d="M355.914,1285.378c-47.962-2.538-95.489-10.832-140.676-27.208c-22.9-8.299-45.037-18.702-65.885-31.31
		c-19.933-12.054-37.866-32.348-50.889-51.586c51.758,41.483,115.112,67.129,180.299,79.388
		c65.188,12.259,132.296,11.55,198.205,4.088c38.145-4.318,76.366-10.973,112.002-25.248c35.635-14.275,68.774-36.66,91.079-67.904
		c28.833-40.389,37.375-92.819,31.192-142.057s-25.982-95.806-49.625-139.436c34.342,40.432,60.286,88.951,68.932,141.289
		c8.646,52.339-1.07,108.554-31.69,151.873c-24.052,34.027-59.692,58.723-98.177,74.699
		c-38.486,15.976-79.891,23.731-121.268,28.667C438.732,1285.486,397.162,1287.561,355.914,1285.378z"/>
	<path fill="#717ED3" d="M661.616,884.106c4.7,6.94,7.29,12.187,10.634,18.173c18.859,33.761,35.068,70.403,41.025,108.854
		c2.511,16.209,0.49,31.414-0.105,47.773c-1.59,43.741-10.014,83.232-38.041,117.41c-22.52,27.463-56.267,45.814-89.018,58.44
		c-32.828,12.656-67.024,20.105-101.826,24.481c-34.633,4.355-69.557,7.264-104.445,6.875
		c-62.123-0.693-122.723-12.248-181.24-33.516c-34.997-12.72-67.57-27.886-95.394-53.083c-1.434-1.299-2.095-1.754-4.743-4.238
		c-16.167-22.461-26.176-47.993-30.426-75.12c-12.121-77.375,11.924-144.626,59.037-205.04c6.322-8.107,13.447-15.588,20.2-23.359
		c167.852,0.001,335.703,0.003,503.555,0.004C654.297,875.834,658.149,880.032,661.616,884.106z M602.649,913.755
		c-3.007,1.55-3.928,4.832-4.638,7.842c-3.438,14.571-6.775,29.169-9.831,43.824c-1.09,5.227-3.761,8.161-8.85,9.632
		c-10.11,2.924-20.146,6.116-30.152,9.383c-2.591,0.846-6.055,1.763-6.094,5.033c-0.04,3.308,3.437,4.233,6.02,5.078
		c10.004,3.276,20.042,6.465,30.151,9.396c5.063,1.468,7.807,4.323,8.905,9.579c3.11,14.883,6.471,29.717,10.059,44.492
		c0.646,2.66,1.056,6.899,4.857,6.814c3.246-0.073,3.463-3.957,4.447-6.483c0.676-1.734,1.083-3.586,1.483-5.413
		c2.704-12.338,5.731-24.62,7.925-37.048c1.352-7.658,5.782-11.118,12.715-13.045c9.464-2.63,18.826-5.642,28.178-8.655
		c2.199-0.708,4.671-1.899,4.708-4.638c0.037-2.762-2.445-3.962-4.631-4.685c-7.996-2.646-15.925-5.785-24.142-7.401
		c-11.288-2.221-16.51-8.362-18.15-19.701c-1.835-12.697-5.319-25.163-8.291-37.68C606.756,917.707,606.041,914.997,602.649,913.755
		z M656.907,1113.019c11.54,1.44,22.084-9.96,22.193-21.508c0.111-11.718-10.622-21.964-22.318-21.781
		c-11.616,0.181-21.176,10.103-21.15,21.952C635.659,1103.97,644.614,1112.951,656.907,1113.019z M617.133,1187.67
		c6.953,0.118,11.692-4.395,11.66-11.101c-0.033-6.769-4.806-11.633-11.393-11.61c-6.575,0.023-11.319,4.928-11.31,11.694
		C606.098,1183.063,610.606,1187.56,617.133,1187.67z"/>
	<path fill="#EBC2DE" d="M429.567,606.901c-3.869,0.966-28.586,9.259-37.672,17.391c-10.219,9.312-17.363,19.308-18.715,32.632
		c-2.732,26.925,2.643,44.834,26.634,59.266c3.652,2.196,7.054,6.802,12.941,7.888c0,0,0.536,0.435,0.536,0.435
		s3.441,1.87,9.74,4.929s11.071,4.92,21.63,6.417c7.977,1.131,15.498-0.314,22.891-1.539c18.332-3.036,35.772-1.688,52.567,6.412
		c0.604,0.291,1.591,1.334,1.591,1.334l0.817,1.972l0.6,1.28c0,0,4.994,4.726,5.679,5.899c8.176,14.011,7.433,24.98,7.051,41.442
		c-0.298,12.863-1.488,14.31-14.721,14.31c-75.038,0.004-150.077,0.097-225.114-0.119c-8.966-0.026-15.198,3.768-20.322,10.368
		c-2.719,3.502-5.171,7.211-7.744,10.826c-13.629-0.009-27.258-0.019-40.887-0.028c16.627-5.316,29.081-15.144,33.242-32.8
		c3.19-13.536-1.346-26.379-5.228-39.164c-3.26-10.735-7.125-21.353-9.447-32.293c-5.101-24.035,0.053-46.569,12.528-67.387
		c14.595-24.355,35.346-40.84,63.371-47.29c4.975-1.145,10.14-1.995,15.226-2.039c24.637-0.21,42.255-0.885,66.894-0.868
		C405.483,606.177,425.256,605.685,429.567,606.901z M314.46,762.713c-0.005,13.105,8.448,21.774,21.225,21.764
		c12.465-0.009,20.555-8.713,21.278-21.16c0.687-11.826-10.178-22.213-21.436-22.29C324.729,740.954,312.156,752.499,314.46,762.713
		z"/>
	<path fill="#717ED3" d="M227.067,828.016c13.629,0.009,27.258,0.019,40.888,0.029c2.813,0.056,5.625,0.16,8.438,0.16
		c102.494,0.008,204.988,0.009,307.482-0.002c2.811,0,5.621-0.139,8.432-0.213c15.697,0.1,31.394,0.218,47.091,0.292
		c5.999,0.028,11.561,1.24,16.101,5.498c-0.733,0.567-1.818,0.979-2.148,1.725c-5.411,12.242-15.113,15.363-27.874,15.345
		c-163.411-0.23-326.823-0.112-490.234-0.083c-0.307-13.364,8.753-22.35,22.902-22.455
		C181.118,828.14,204.093,828.107,227.067,828.016z"/>
	<path fill="#5766CB" d="M135.243,850.766c163.411-0.029,326.823-0.147,490.234,0.083c12.761,0.018,22.463-3.103,27.874-15.345
		c0.33-0.746,1.414-1.158,2.148-1.725c9.628,9.018,10.531,19.532,2.394,30.316c-2.083,2.76-4.694,5.121-7.062,7.666
		c-167.852-0.001-335.704-0.003-503.555-0.004C141.497,865.773,134.924,860.245,135.243,850.766z"/>
	<path fill="#D98BC0" d="M592.307,827.989c-2.811,0.074-5.621,0.213-8.432,0.213c-102.494,0.011-204.988,0.01-307.482,0.002
		c-2.812,0-5.625-0.104-8.437-0.16c2.572-3.616,5.024-7.325,7.743-10.827c5.124-6.6,11.357-10.394,20.322-10.368
		c75.037,0.216,150.076,0.123,225.114,0.119c13.234-0.001,14.423-1.448,14.721-14.31c0.382-16.463-4.594-33.15-12.77-47.161
		c-0.684-1.172-1.675-3.402-2.968-4.766c10.216,4.876,18.796,14.167,25.178,22.317c5.5,7.024,9.52,15.158,11.41,23.911
		C561.093,807.279,571.719,821.877,592.307,827.989z"/>
	<path fill="#EBC3DF" d="M221.561,752.069c-0.065,6.577-4.265,10.747-11.073,11.215c-14.325,0.985-14.321,0.985-14.331,15.146
		c-0.002,2.578,0.197,5.188-0.125,7.729c-0.731,5.756-5.767,9.93-11.165,9.536c-5.461-0.398-9.753-4.944-9.883-10.713
		c-0.121-5.39-0.257-10.797,0.034-16.173c0.239-4.403-1.556-5.87-5.746-5.564c-3.263,0.238-6.609,0.373-9.831-0.073
		c-5.96-0.824-10.413-4.503-10.72-10.366c-0.28-5.347,2.895-9.563,8.806-11.183c4.211-1.154,8.382-0.727,12.557-0.717
		c3.652,0.009,5.027-1.378,4.907-4.995c-0.18-5.386-0.181-10.788,0.003-16.175c0.232-6.783,4.923-11.517,10.888-11.305
		c5.73,0.203,9.991,4.754,10.233,11.266c0.182,4.917,0.31,9.865-0.03,14.764c-0.335,4.841,1.278,6.813,6.306,6.472
		c3.913-0.265,7.89-0.491,11.816,0.908C219.278,743.648,222.034,746.745,221.561,752.069z"/>
	<path fill="#EBC3DF" d="M750.905,321.834c-0.065,6.577-4.265,10.747-11.073,11.215c-14.325,0.985-14.321,0.985-14.331,15.146
		c-0.002,2.578,0.197,5.188-0.125,7.729c-0.731,5.756-5.767,9.93-11.165,9.536c-5.461-0.398-9.753-4.944-9.883-10.713
		c-0.121-5.39-0.257-10.797,0.034-16.173c0.239-4.403-1.556-5.87-5.746-5.564c-3.263,0.238-6.609,0.373-9.831-0.073
		c-5.96-0.824-10.414-4.503-10.72-10.366c-0.28-5.347,2.895-9.563,8.806-11.183c4.211-1.154,8.382-0.727,12.557-0.717
		c3.652,0.009,5.027-1.378,4.907-4.995c-0.18-5.386-0.181-10.788,0.003-16.175c0.232-6.783,4.923-11.517,10.888-11.305
		c5.73,0.203,9.991,4.754,10.233,11.266c0.182,4.917,0.31,9.865-0.03,14.764c-0.335,4.841,1.278,6.813,6.306,6.472
		c3.913-0.265,7.89-0.491,11.816,0.908C748.622,313.413,751.378,316.51,750.905,321.834z"/>
	<path fill="#D5D9F1" d="M159.656,680.208c-12.539,0.022-21.293-8.611-21.321-21.025c-0.027-12.062,9.545-22.036,21.53-22.435
		c10.38-0.345,22.281,11.806,22.041,22.506C181.66,670.285,171.144,680.188,159.656,680.208z"/>
	<path fill="#DDC9F0" d="M225.671,583.189c-0.087-6.751,4.005-11.368,10.249-11.563c7.259-0.227,12.334,4.406,12.34,11.263
		c0.005,6.319-4.614,11.115-10.899,11.317C230.713,594.42,225.755,589.747,225.671,583.189z"/>
	<path fill="#D5D9F1" d="M816.468,543.828c-12.539,0.022-21.293-8.61-21.321-21.025c-0.027-12.062,9.545-22.036,21.53-22.435
		c10.38-0.345,22.281,11.806,22.041,22.506C838.472,533.906,827.956,543.808,816.468,543.828z"/>
	<path fill="#D5D9F1" d="M563.655,453.798c-12.539,0.022-21.293-8.61-21.321-21.025c-0.027-12.062,9.545-22.036,21.53-22.435
		c10.38-0.345,22.281,11.806,22.041,22.506C585.658,443.875,575.143,453.778,563.655,453.798z"/>
	<path fill="#DDC9F0" d="M480.732,494.986c-0.087-6.751,4.005-11.368,10.249-11.563c7.259-0.227,12.334,4.406,12.34,11.263
		c0.005,6.319-4.614,11.115-10.899,11.317C485.774,506.217,480.817,501.545,480.732,494.986z"/>
	<path fill="#DDC9F0" d="M407.79,336.304c-0.087-6.751,4.005-11.368,10.249-11.563c7.259-0.227,12.334,4.406,12.34,11.263
		c0.005,6.319-4.614,11.115-10.899,11.317C412.832,347.535,407.874,342.863,407.79,336.304z"/>
	<path fill="#DDC9F0" d="M891.333,500.635c-0.087-6.751,4.005-11.368,10.249-11.563c7.259-0.227,12.334,4.406,12.34,11.263
		c0.005,6.319-4.614,11.115-10.899,11.317C896.375,511.866,891.418,507.193,891.333,500.635z"/>
	<path fill="#DDC9F0" d="M574.615,663.051c-0.087-6.751,4.005-11.368,10.249-11.563c7.259-0.227,12.334,4.406,12.34,11.263
		c0.005,6.319-4.614,11.115-10.899,11.317C579.657,674.281,574.7,669.609,574.615,663.051z"/>
	<path fill="#F0EEF3" d="M602.649,913.755c3.392,1.242,4.107,3.951,4.67,6.324c2.972,12.518,6.455,24.984,8.291,37.68
		c1.639,11.339,6.862,17.481,18.15,19.701c8.217,1.617,16.146,4.756,24.142,7.401c2.186,0.723,4.667,1.923,4.631,4.685
		c-0.036,2.738-2.509,3.929-4.708,4.638c-9.353,3.012-18.714,6.025-28.178,8.655c-6.933,1.926-11.363,5.387-12.715,13.045
		c-2.194,12.429-5.221,24.711-7.925,37.048c-0.401,1.827-0.807,3.678-1.483,5.413c-0.984,2.526-1.202,6.41-4.447,6.483
		c-3.801,0.085-4.211-4.153-4.857-6.814c-3.588-14.774-6.948-29.609-10.059-44.492c-1.098-5.255-3.842-8.111-8.905-9.579
		c-10.11-2.93-20.147-6.12-30.151-9.396c-2.583-0.846-6.059-1.771-6.02-5.078c0.039-3.271,3.503-4.187,6.094-5.033
		c10.006-3.267,20.041-6.459,30.152-9.383c5.089-1.472,7.76-4.406,8.85-9.632c3.056-14.655,6.393-29.253,9.831-43.824
		C598.721,918.587,599.642,915.306,602.649,913.755z"/>
	<path fill="#D3D7F1" d="M656.907,1113.019c-12.293-0.068-21.248-9.049-21.275-21.337c-0.026-11.848,9.534-21.77,21.15-21.952
		c11.696-0.182,22.429,10.063,22.318,21.781C678.991,1103.058,668.447,1114.459,656.907,1113.019z"/>
	<path fill="#DAC6EF" d="M617.133,1187.67c-6.527-0.11-11.035-4.607-11.044-11.017c-0.009-6.766,4.735-11.671,11.31-11.694
		c6.587-0.023,11.36,4.841,11.393,11.61C628.826,1183.275,624.086,1187.788,617.133,1187.67z"/>
	<path fill="#F2F0F3" d="M314.46,762.713c-2.304-10.214,10.269-21.758,21.067-21.685c11.258,0.076,22.123,10.464,21.436,22.29
		c-0.723,12.448-8.813,21.151-21.278,21.16C322.908,784.487,314.455,775.818,314.46,762.713z"/>
	<path fill="#F2F0F3" d="M828.158,213.008c-1.152-5.107,5.134-10.879,10.533-10.843c5.629,0.038,11.061,5.232,10.718,11.145
		c-0.362,6.224-4.407,10.576-10.639,10.58C832.382,223.895,828.155,219.561,828.158,213.008z"/>
	<path fill="#EBC2DE" d="M524.719,479.053c-5.04,3.058-9.635,7.176-13.417,12.522c-7.688,10.868-11.085,25.542-13.595,39.389
		c-2.718,14.99-4.71,30.499-10.611,43.983c-6.742,15.407-18.537,27.236-32.033,32.125c14.626-0.508,29.246,2.054,43.866,1.33
		s29.848-5.222,40.586-17.643c8.357-9.667,13.199-23.229,16.164-36.969c3.022-14.006,4.654-29.413,12.522-40.078
		c6.262-8.488,15.424-12.442,24.19-16.083c17.884-7.43,58.586-18.397,58.004-21.047c-0.583-2.65-55.056-3.565-80.407-4.727
		c-10.126-0.464-20.343-0.92-30.321,1.282C534.496,474.276,529.414,476.204,524.719,479.053z"/>
	<g>
		<path fill="#DA8CC1" d="M899.365,206.495c-7.547,3.934-14.48,8.845-20.456,15.109c-19.909,20.869-24.362,51.901-24.824,80.74
			c-0.462,28.839,1.927,58.584-7.907,85.699c-13.411,36.973-48.094,63.069-85.374,75.6c-21.448,7.209-43.97,10.574-66.482,12.141
			c-11.46,0.797-22.948,1.134-34.433,1.288c-3.041,0.041-14.258-1.311-15.661,0.948c-0.668,1.075,2.477,16.792,2.072,16.806
			c34.794-1.19,69.841,0.799,104.266-4.395s69.132-18.575,91.763-45.031c21.787-25.47,29.773-59.509,40.201-91.363
			c11.398-34.814,26.614-68.684,48.375-98.154c21.76-29.469,50.37-54.451,84.171-68.575c-18.839-3.517-38.211-0.361-57.114,2.795
			C938,193.437,917.006,197.298,899.365,206.495z"/>
	</g>
	<g>
		<path fill="#DA8CC1" d="M610.853,483.924c-16.987,5.32-34.223,14.787-44.177,32.793c-10.388,18.792-11.254,43.965-21.94,62.494
			c-16.455,28.53-48.132,28.292-76.801,28.045c-22.517-0.194-47.318-5.346-68.828,5.328c-21.056,10.448-32.566,39.31-27.601,67.026
			c3.675,20.513,16.535,38.053,32.566,44.415c-9.612-11.53-16.467-27.147-17.272-43.767c-0.805-16.621,5.034-34.017,16.118-43.255
			c11.114-9.263,25.382-9.428,38.74-9.271c18.061,0.211,36.121,0.423,54.182,0.635c16.804,0.197,34.906-0.099,48.493-12.457
			c27.643-25.143,22.072-85.848,51.303-108.008c7.689-5.829,16.775-7.966,25.684-9.489c26.501-4.532,53.638-4.641,80.7-4.685v-18.49
			C671.286,475.406,640.532,474.629,610.853,483.924z"/>
	</g>
</g>
</svg>
