<?xml version="1.0" standalone="no"?>
<!DOCTYPE svg PUBLIC "-//W3C//DTD SVG 20010904//EN"
 "http://www.w3.org/TR/2001/REC-SVG-20010904/DTD/svg10.dtd">
<svg version="1.0" xmlns="http://www.w3.org/2000/svg"
 width="1080.000000pt" height="309.000000pt" viewBox="0 0 1080.000000 309.000000"
 preserveAspectRatio="xMidYMid meet">

<g transform="translate(0.000000,309.000000) scale(0.100000,-0.100000)"
fill="#000000" stroke="none">
<path d="M6741 2849 c-41 -100 -114 -182 -198 -224 -69 -34 -162 -43 -268 -27
-38 6 -70 10 -72 9 -1 -2 34 -18 78 -36 102 -42 154 -82 205 -157 47 -71 70
-157 61 -237 -3 -28 -9 -74 -12 -102 l-6 -50 32 76 c59 145 152 233 279 265
62 16 87 16 225 -2 34 -4 25 2 -52 36 -201 91 -280 241 -243 464 5 33 8 61 7
63 -2 1 -18 -34 -36 -78z"/>
<path d="M3725 1824 c-283 -59 -498 -199 -684 -443 -146 -191 -246 -408 -292
-631 -25 -119 -38 -454 -19 -489 24 -45 61 -51 331 -51 232 0 250 1 238 16 -8
9 -64 55 -126 101 -61 46 -115 92 -118 103 -3 11 0 29 8 40 21 30 119 114 226
193 53 38 112 82 131 97 73 56 216 140 238 140 5 0 13 -15 19 -32 77 -234 170
-493 191 -531 48 -89 71 -101 213 -116 123 -13 229 -8 229 10 0 10 -34 93 -74
181 -29 64 -116 262 -181 413 -196 453 -295 769 -295 941 0 35 -3 63 -7 63 -5
-1 -17 -3 -28 -5z m-273 -316 c41 -96 105 -282 142 -414 14 -50 28 -98 31
-106 6 -14 -37 -47 -411 -308 -211 -147 -205 -144 -219 -129 -24 25 -45 120
-45 201 0 258 106 542 263 707 55 56 161 131 188 131 10 0 28 -29 51 -82z"/>
<path d="M9490 1816 c-395 -88 -726 -416 -890 -881 -56 -160 -72 -260 -77
-471 l-5 -190 25 -30 25 -29 273 -3 c317 -4 305 -14 137 110 -101 74 -128 101
-128 127 0 51 540 451 608 451 6 0 12 -8 15 -17 35 -116 172 -504 191 -541 26
-51 68 -99 95 -106 95 -26 351 -29 351 -4 0 10 -65 164 -123 288 -16 36 -44
99 -62 140 -18 41 -53 122 -77 180 -192 444 -288 754 -288 926 0 35 -3 64 -7
63 -5 -1 -33 -7 -63 -13z m-238 -308 c41 -99 87 -230 123 -353 15 -49 33 -109
40 -131 7 -23 10 -46 6 -51 -3 -6 -62 -50 -131 -99 -69 -48 -147 -103 -175
-123 -214 -151 -306 -211 -315 -206 -40 25 -61 199 -41 346 30 229 151 480
288 603 49 43 134 96 154 96 12 0 27 -25 51 -82z"/>
<path d="M1777 1794 c-82 -54 -94 -116 -41 -219 l27 -54 -103 -173 c-57 -95
-109 -180 -117 -188 -24 -25 -85 55 -163 214 -78 160 -121 287 -123 364 l-1
52 -68 0 -67 0 -41 -61 c-106 -155 -195 -362 -305 -709 -100 -314 -150 -550
-143 -671 5 -89 23 -124 73 -145 36 -15 152 -19 172 -6 8 5 3 26 -18 75 -54
129 -63 178 -63 352 1 191 19 309 75 480 40 123 115 285 135 292 12 4 235
-358 293 -474 56 -113 83 -223 88 -371 5 -111 8 -132 20 -128 8 3 19 6 23 6
18 0 81 64 99 99 42 81 53 143 61 331 4 102 14 208 20 235 26 104 83 208 164
300 l35 40 32 -35 c94 -105 240 -399 335 -675 75 -218 64 -280 -75 -427 l-81
-86 125 -7 c288 -17 373 41 383 260 7 159 -25 260 -191 605 -41 85 -93 194
-116 242 -94 198 -134 356 -114 457 l10 51 -151 -1 c-143 0 -153 -1 -189 -25z"/>
<path d="M5170 1805 c-333 -61 -612 -285 -709 -570 -18 -53 -24 -100 -28 -198
-6 -142 6 -240 41 -345 129 -378 433 -558 753 -448 127 43 264 135 336 224 32
41 77 135 77 162 0 6 -37 -17 -82 -50 -95 -70 -152 -90 -252 -90 -155 0 -275
51 -394 165 -242 231 -300 618 -128 853 201 272 622 310 873 79 50 -46 56 -46
149 25 55 41 81 73 67 81 -43 26 -264 101 -331 112 -103 18 -271 18 -372 0z"/>
<path d="M6186 1779 c-23 -18 -26 -28 -26 -80 l0 -59 33 14 c17 8 69 31 115
51 87 39 192 58 192 35 0 -7 -21 -42 -48 -79 -185 -258 -192 -295 -143 -861
38 -450 35 -475 -63 -545 l-56 -40 297 -3 c163 -1 298 0 301 3 11 11 7 114 -5
126 -8 8 -38 4 -123 -21 -62 -17 -114 -29 -116 -27 -3 2 13 35 35 73 92 160
103 255 95 768 l-6 371 26 88 c14 48 37 114 50 147 l25 60 -278 0 c-266 0
-279 -1 -305 -21z"/>
<path d="M7632 1786 c-268 -66 -524 -309 -624 -593 -25 -73 -31 -108 -35 -208
-8 -195 26 -333 118 -470 91 -136 228 -230 399 -277 71 -19 109 -22 230 -22
124 1 157 5 227 26 147 45 261 129 333 248 24 39 40 74 36 77 -3 4 -66 -24
-139 -60 -177 -90 -252 -102 -422 -72 -250 45 -433 244 -482 525 -19 104 -12
285 13 380 53 201 177 334 324 347 65 6 81 0 203 -83 96 -64 133 -78 202 -72
65 6 127 37 187 95 37 36 46 52 43 72 -2 14 -7 42 -10 62 l-5 37 -37 -19 c-50
-26 -166 -25 -275 1 -94 23 -207 25 -286 6z"/>
<path d="M5261 1336 c-45 -76 -61 -135 -61 -235 0 -68 4 -93 20 -118 19 -32
22 -33 86 -33 110 0 266 -53 370 -126 101 -71 144 -150 144 -267 0 -58 -5 -83
-26 -124 -39 -80 -127 -149 -212 -168 -27 -6 -52 -29 -52 -49 0 -20 139 9 213
44 69 33 154 121 188 195 74 163 33 382 -95 510 -28 28 -125 100 -216 160
-185 123 -270 191 -296 235 -10 16 -21 30 -24 30 -3 0 -21 -24 -39 -54z"/>
</g>
</svg>
